<svg width="30" height="36" viewBox="0 0 30 36" fill="none" xmlns="http://www.w3.org/2000/svg">
<path d="M13.8496 0.310246L1.08271 8.12384C0.406015 8.5375 0 9.2729 0 10.1002V25.8653C0 26.6926 0.406015 27.428 1.08271 27.8417L13.8496 35.6553C14.5714 36.1149 15.4737 36.1149 16.1504 35.6553L28.9173 27.8417C29.594 27.428 30 26.6926 30 25.8653V10.1002C30 9.2729 29.594 8.5375 28.9173 8.12384L16.1504 0.310246C15.4737 -0.103415 14.5714 -0.103415 13.8496 0.310246ZM15.8797 28.715C9.38346 29.2206 4.01504 23.751 4.55639 17.1325C4.96241 11.9387 9.11278 7.71018 14.2105 7.29652C20.7068 6.79094 26.0752 12.2605 25.5789 18.879C25.1278 24.0728 20.9774 28.3013 15.8797 28.715Z" fill="#F2FD84"/>
<path d="M9.20289 17.0404L14.0751 12.0765C14.6164 11.525 15.4736 11.525 15.9698 12.0765L20.842 17.0404C21.3833 17.592 21.3833 18.4653 20.842 18.9709L15.9698 23.9348C15.4285 24.4863 14.5713 24.4863 14.0751 23.9348L9.20289 18.9709C8.66154 18.4193 8.66154 17.592 9.20289 17.0404Z" fill="#F2FD84"/>
</svg>
