<svg width="33" height="36" viewBox="0 0 33 36" fill="none" xmlns="http://www.w3.org/2000/svg">
<path d="M16.4781 0.000250148C16.393 0.00478512 16.3098 0.0270303 16.2341 0.0671648C16.2341 0.0671648 9.23578 3.62107 0.508734 4.80572C0.21553 4.84699 -0.00215851 5.10316 1.61496e-05 5.40449V17.9986C1.61496e-05 25.7138 4.14896 30.2903 8.23965 32.8353C12.3303 35.3804 16.4125 35.9932 16.4125 35.9932C16.4705 36.0023 16.5295 36.0023 16.5875 35.9932C16.5875 35.9932 20.6697 35.3804 24.7603 32.8353C28.851 30.2903 33 25.7138 33 17.9986V5.40449C33.0024 5.10316 32.7845 4.84694 32.4913 4.80572C23.7642 3.62107 16.7659 0.0671648 16.7659 0.0671648C16.6771 0.0204546 16.5781 -0.00269758 16.4781 0.000250148ZM16.5 7.20191C22.3511 7.20191 27.1048 12.0415 27.1048 17.9984C27.1048 23.9554 22.3511 28.8009 16.5 28.8009C10.6488 28.8009 5.89513 23.9554 5.89513 17.9984C5.89513 12.0415 10.6488 7.20191 16.5 7.20191ZM14.1417 12.6002V15.6034H11.1975C10.8721 15.6022 10.6073 15.8697 10.606 16.201V19.8018C10.6071 20.1331 10.8721 20.4007 11.1975 20.3994H14.1417V23.4026C14.1428 23.7344 14.4085 24.0021 14.7344 24.0002H18.2655C18.5909 24.0014 18.8558 23.7339 18.8571 23.4026V20.3994H21.8024C22.1278 20.4006 22.3927 20.1331 22.394 19.8018V16.201C22.3928 15.8697 22.1278 15.6021 21.8024 15.6034H18.8571V12.6002C18.8559 12.2689 18.5909 12.0013 18.2655 12.0026H14.7039C14.3715 12.0328 14.1414 12.2914 14.1417 12.6002Z" fill="#F2FD84"/>
</svg>
