<svg width="33" height="37" viewBox="0 0 33 37" fill="none" xmlns="http://www.w3.org/2000/svg">
<path d="M25.8814 10.8311L17.16 5.73964C16.7357 5.50393 16.17 5.50393 15.7457 5.73964L7.02428 10.8311C6.59999 11.0668 6.03428 11.0668 5.60999 10.8311L3.62999 9.69964C2.68714 9.13393 2.68714 7.81393 3.62999 7.24821L15.7457 0.176786C16.17 -0.0589286 16.7357 -0.0589286 17.16 0.176786L29.2757 7.24821C30.2186 7.81393 30.2186 9.13393 29.2757 9.69964L27.2957 10.8311C26.8714 11.1139 26.3057 11.1139 25.8814 10.8311Z" fill="#F2FD84"/>
<path d="M10.5601 24.3612L15.6987 21.344C16.123 21.1083 16.6887 21.1083 17.113 21.344L22.2987 24.3612C22.7701 24.644 22.7701 25.3512 22.2987 25.634L17.1601 28.6512C16.7358 28.8869 16.1701 28.8869 15.7458 28.6512L10.5601 25.634C10.0887 25.3512 10.0887 24.644 10.5601 24.3612Z" fill="#F2FD84"/>
<path d="M20.1771 11.2082L24.3257 13.6125C24.7499 13.8482 25.0328 14.3197 25.0328 14.8382V20.8254C25.0328 21.4382 24.3728 21.8154 23.8542 21.4854L18.7628 18.5154C18.3385 18.2797 18.0557 17.8082 18.0557 17.2897V12.4339C18.0557 11.3497 19.2342 10.6897 20.1771 11.2082Z" fill="#F2FD84"/>
<path d="M14.143 18.5626L8.95733 21.5797C8.4859 21.8626 7.87305 21.5326 7.87305 20.9669V14.8854C7.87305 14.3669 8.1559 13.8954 8.58019 13.6597L12.7288 11.2554C13.6716 10.6897 14.8502 11.3969 14.8502 12.4812V17.384C14.8502 17.8554 14.6145 18.2797 14.143 18.5626Z" fill="#F2FD84"/>
<path d="M32.2457 29.1696L20.1771 36.241C19.2342 36.8067 18.0557 36.0996 18.0557 35.0153V32.7053C18.0557 32.1867 18.3385 31.7153 18.7628 31.4796L27.5314 26.341C27.9557 26.1053 28.2385 25.6339 28.2385 25.1153V14.8853C28.2385 14.3667 28.5214 13.8953 28.9457 13.6596L30.8785 12.5281C31.8214 11.9624 32.9999 12.6696 32.9999 13.7539V27.9439C32.9528 28.4153 32.67 28.8867 32.2457 29.1696Z" fill="#F2FD84"/>
<path d="M4.71429 14.8853V25.1624C4.71429 25.681 4.99714 26.1524 5.42143 26.3881L14.19 31.5267C14.6143 31.7624 14.8971 32.2339 14.8971 32.7524V35.0624C14.8971 36.1467 13.7186 36.8539 12.7757 36.2881L0.707143 29.2167C0.282857 28.981 0 28.5096 0 27.991V13.7539C0 12.6696 1.17857 11.9624 2.12143 12.5281L4.05429 13.6596C4.43143 13.8953 4.71429 14.3667 4.71429 14.8853Z" fill="#F2FD84"/>
</svg>
