<svg width="36" height="36" viewBox="0 0 36 36" fill="none" xmlns="http://www.w3.org/2000/svg">
<path d="M29.7092 22.0638V15.4559C29.7092 15.1633 29.4545 15.0057 29.1999 15.1633L21.5593 19.0582C21.3937 19.137 21.2282 19.3621 21.2282 19.5874V27.3885C21.2282 27.6924 21.4828 27.8387 21.7375 27.6924L28.1811 24.394L34.4719 27.6136L18.0828 35.9776L18.0446 36L17.9936 35.9776L6.90202 30.3039L1.64273 27.6023L7.89537 24.394L14.3516 27.6924C14.6062 27.8387 14.8609 27.6136 14.7718 27.321V19.5085C14.7718 19.2833 14.6827 19.137 14.428 18.9907L6.78741 15.0845C6.62186 15.0057 6.27803 15.1632 6.27803 15.3883V21.985L0 25.2158V8.40902L16.5547 0V6.45029L10.0983 9.75987C9.84365 9.82741 9.84365 10.2102 10.0983 10.2777L17.7389 14.1839C17.9172 14.2627 18.1719 14.3302 18.4266 14.1839L26.0672 10.2777C26.3219 10.2102 26.3219 9.90621 26.0672 9.75987L19.6109 6.45029V0L36 8.40902V25.182L29.7092 22.0638Z" fill="#F2FD84"/>
</svg>
