<svg width="34" height="34" viewBox="0 0 34 34" fill="none" xmlns="http://www.w3.org/2000/svg">
<path d="M5.66656 11.3334C2.53821 11.3334 0 8.7962 0 5.66656C0 2.53692 2.53821 0 5.66656 0C8.79588 0 11.3331 2.53724 11.3331 5.66656C11.3331 8.79588 13.8707 11.3334 17 11.3334C20.1293 11.3334 22.6666 8.7962 22.6666 5.66688C22.6666 2.53756 25.2041 0 28.3334 0C31.4628 0 34 2.53724 34 5.66656C34 8.79588 31.4628 11.3331 28.3334 11.3331C18.9435 11.3331 11.3334 18.9465 11.3334 28.3328C11.3334 31.4605 8.7962 33.9994 5.66688 33.9994C2.53757 33.9994 0 31.4628 0 28.3334C0 25.2041 2.53724 22.6666 5.66656 22.6666C8.79588 22.6666 11.3325 20.1293 11.3325 17C11.3325 13.8707 8.7962 11.3334 5.66656 11.3334Z" fill="#F2FD84"/>
<path d="M15.5835 24.7913C15.5835 19.7029 19.7053 15.583 24.7921 15.583C29.8789 15.5833 34.0001 19.7029 34.0001 24.7913C34.0001 29.8775 29.8789 34 24.7915 34C19.7047 34 15.5835 29.8775 15.5835 24.7913Z" fill="#F2FD84"/>
</svg>
