<svg width="24" height="24" viewBox="0 0 24 24" fill="none" xmlns="http://www.w3.org/2000/svg">
<path d="M12 24C8.8174 24 5.76516 22.7357 3.51472 20.4853C1.26428 18.2348 0 15.1826 0 12C0 8.8174 1.26428 5.76516 3.51472 3.51472C5.76516 1.26428 8.8174 0 12 0C13.5759 0 15.1363 0.310389 16.5922 0.913446C18.0481 1.5165 19.371 2.40042 20.4853 3.51472C21.5996 4.62902 22.4835 5.95189 23.0866 7.4078C23.6896 8.86371 24 10.4241 24 12C24 13.5759 23.6896 15.1363 23.0866 16.5922C22.4835 18.0481 21.5996 19.371 20.4853 20.4853C19.371 21.5996 18.0481 22.4835 16.5922 23.0866C15.1363 23.6896 13.5759 24 12 24Z" fill="#F2FD84"/>
<path d="M10.6645 16.7618C10.4747 16.7621 10.2868 16.7248 10.1115 16.6523C9.93615 16.5797 9.7769 16.4732 9.64288 16.3388L5.67995 12.3762C5.41226 12.1046 5.26281 11.7382 5.26417 11.3568C5.26553 10.9755 5.41759 10.6102 5.6872 10.3405C5.95681 10.0708 6.3221 9.91864 6.70344 9.91719C7.08477 9.91573 7.45121 10.0651 7.72288 10.3327L10.6642 13.2738L16.2765 7.6615C16.5475 7.39052 16.915 7.23828 17.2982 7.23828C17.6814 7.23828 18.049 7.39052 18.3199 7.6615C18.5909 7.93248 18.7432 8.30001 18.7432 8.68323C18.7432 9.06645 18.5909 9.43398 18.3199 9.70496L11.6861 16.3388C11.5521 16.4732 11.3928 16.5797 11.2175 16.6523C11.0422 16.7248 10.8542 16.7621 10.6645 16.7618Z" fill="#222222"/>
</svg>
